<?xml version="1.0" standalone="no"?>
<!DOCTYPE svg PUBLIC "-//W3C//DTD SVG 20010904//EN"
 "http://www.w3.org/TR/2001/REC-SVG-20010904/DTD/svg10.dtd">
<svg version="1.0" xmlns="http://www.w3.org/2000/svg"
 width="500.000000pt" height="500.000000pt" viewBox="0 0 500.000000 500.000000"
 preserveAspectRatio="xMidYMid meet">
<metadata>
Created by potrace 1.14, written by Peter Selinger 2001-2017
</metadata>
<g transform="translate(0.000000,500.000000) scale(0.100000,-0.100000)"
fill="#000000" stroke="none">
<path d="M2250 4989 c-36 -4 -85 -11 -110 -15 -25 -3 -52 -7 -60 -9 -8 -1 -28
-5 -45 -8 -16 -4 -40 -10 -52 -12 -13 -3 -33 -7 -45 -11 -13 -3 -34 -7 -48
-10 -14 -3 -41 -10 -60 -16 -19 -6 -35 -10 -35 -9 0 1 -34 -10 -75 -25 -41
-14 -79 -27 -85 -28 -19 -5 -50 -18 -105 -43 -30 -14 -73 -32 -95 -41 -22 -8
-47 -21 -56 -29 -8 -7 -20 -13 -25 -13 -14 0 -218 -121 -222 -132 -2 -4 -8 -8
-13 -8 -8 0 -109 -73 -218 -156 -14 -11 -88 -82 -165 -159 -116 -115 -188
-201 -304 -360 -31 -43 -82 -127 -82 -135 0 -5 -4 -10 -8 -10 -4 0 -14 -16
-21 -35 -7 -19 -17 -35 -22 -35 -5 0 -9 -4 -9 -9 0 -5 -20 -51 -44 -103 -90
-189 -170 -425 -192 -565 -3 -21 -8 -41 -10 -45 -4 -7 -20 -118 -32 -223 -14
-122 -5 -544 12 -595 3 -8 7 -33 10 -55 5 -41 15 -92 42 -205 20 -83 103 -331
116 -347 6 -7 8 -13 5 -13 -3 0 29 -69 72 -153 133 -262 260 -437 471 -647
240 -241 520 -426 831 -551 92 -36 219 -78 219 -71 0 3 5 1 12 -6 7 -7 22 -12
33 -12 12 0 25 -3 29 -7 3 -4 12 -8 19 -9 46 -7 74 -13 87 -18 8 -3 33 -8 55
-11 22 -4 51 -8 65 -11 163 -27 234 -31 435 -29 121 2 229 5 240 8 19 4 115
18 160 22 11 1 31 5 45 9 14 3 36 8 50 10 239 44 546 168 799 324 144 88 194
126 351 264 204 181 403 431 525 663 20 39 40 75 44 80 4 6 20 39 35 75 15 36
31 74 36 85 32 71 104 290 116 355 3 14 9 41 14 60 5 19 11 46 14 60 2 14 7
36 10 50 3 14 8 45 10 70 3 25 9 70 13 100 10 72 10 436 0 520 -10 89 -22 168
-32 210 -3 14 -8 39 -11 57 -3 17 -13 61 -24 97 -10 37 -19 69 -19 71 1 14
-55 171 -64 183 -5 6 -7 12 -4 12 7 0 -71 180 -85 198 -6 6 -7 12 -2 12 5 0 5
4 -1 8 -5 4 -30 45 -54 92 -82 159 -232 368 -357 497 -23 24 -40 43 -38 43 4
0 -99 96 -155 145 -19 17 -39 35 -45 41 -6 5 -47 37 -91 70 -44 32 -81 62 -83
67 -2 4 -8 7 -14 7 -5 0 -29 14 -53 30 -24 17 -48 30 -53 30 -6 0 -12 4 -14 9
-2 7 -49 34 -178 102 -35 19 -148 69 -190 84 -63 23 -221 76 -242 81 -26 6
-46 11 -108 27 -49 13 -115 26 -160 32 -36 5 -117 18 -135 22 -36 9 -459 10
-525 2z"/>
</g>
</svg>
